<svg width="128" height="19" viewBox="0 0 128 19" fill="none" xmlns="http://www.w3.org/2000/svg">
<path d="M18.1717 5.02644V5.93027C17.6525 5.25785 16.6912 4.79504 15.5778 4.79504C12.9463 4.79504 10.9879 7.12283 10.9879 9.85607C10.9879 12.6663 12.9265 14.917 15.5778 14.917C16.6912 14.917 17.6525 14.474 18.1717 13.7621V14.6678H21.4488V5.02644H18.1717ZM22.5898 0.754583V14.6698H25.9893V9.52775C25.9893 8.527 26.469 7.92974 27.2369 7.92974C28.0048 7.92974 28.4095 8.44987 28.4095 9.41106V14.6698H31.7931V8.60808C31.7931 6.26054 30.5258 4.79702 28.4885 4.79702C28.0036 4.77935 27.5213 4.87652 27.0809 5.08064C26.6404 5.28476 26.2543 5.59009 25.9537 5.97179V0.756563L22.5898 0.754583ZM53.6881 9.85203C53.6881 12.7395 51.4791 14.913 48.5397 14.913C45.6001 14.913 43.3911 12.7376 43.3911 9.85203C43.3911 6.96658 45.6001 4.7911 48.5397 4.7911C51.4791 4.7911 53.6881 6.96658 53.6881 9.85203ZM42.8147 9.85203C42.8147 12.7395 40.6056 14.913 37.6682 14.913C34.7307 14.913 32.5197 12.7376 32.5197 9.85203C32.5197 6.96658 34.7287 4.7911 37.6682 4.7911C40.6076 4.7911 42.8147 6.96658 42.8147 9.85203ZM0 5.02248L4.11011 14.741L2.6315 18.2435H6.24216L11.7164 5.02248H8.11757L5.88879 10.6807L3.67975 5.02248H0ZM16.2687 11.8337C16.0068 11.8396 15.7463 11.7926 15.5029 11.6956C15.2593 11.5985 15.0379 11.4535 14.8515 11.269C14.6651 11.0845 14.5176 10.8643 14.4179 10.6216C14.3182 10.3789 14.2682 10.1185 14.2709 9.85607C14.2684 9.59359 14.3187 9.33336 14.4185 9.09077C14.5183 8.84816 14.6657 8.62812 14.852 8.44367C15.0384 8.25922 15.2598 8.11415 15.5031 8.01703C15.7465 7.91992 16.0068 7.87274 16.2687 7.87831C16.5288 7.8754 16.7868 7.92457 17.0276 8.02292C17.2684 8.12128 17.4872 8.26685 17.6711 8.45108C17.855 8.63532 18.0003 8.85449 18.0985 9.09575C18.1967 9.33704 18.2457 9.59548 18.2428 9.85607C18.246 10.1167 18.1971 10.3753 18.0991 10.6166C18.001 10.858 17.8556 11.0773 17.6717 11.2616C17.4878 11.4458 17.2689 11.5915 17.028 11.6897C16.7869 11.7879 16.5289 11.837 16.2687 11.8337ZM39.5889 9.85607C39.595 9.60069 39.5498 9.34674 39.4556 9.10944C39.3615 8.87209 39.2206 8.65622 39.0413 8.47472C38.862 8.29321 38.6479 8.14982 38.4119 8.05312C38.176 7.95642 37.9231 7.90838 37.6682 7.91192C37.4132 7.90838 37.1603 7.95642 36.9243 8.05312C36.6884 8.14982 36.4743 8.29321 36.295 8.47472C36.1157 8.65622 35.9747 8.87209 35.8807 9.10944C35.7865 9.34674 35.7412 9.60069 35.7474 9.85607C35.7412 10.1114 35.7865 10.3652 35.8807 10.6026C35.9747 10.84 36.1157 11.0558 36.295 11.2374C36.4743 11.4188 36.6884 11.5623 36.9243 11.6589C37.1603 11.7557 37.4132 11.8036 37.6682 11.8001C37.9231 11.8036 38.176 11.7557 38.4119 11.6589C38.6479 11.5623 38.862 11.4188 39.0413 11.2374C39.2206 11.0558 39.3615 10.84 39.4556 10.6026C39.5498 10.3652 39.595 10.1114 39.5889 9.85607ZM50.4604 9.85607C50.4666 9.60069 50.4212 9.34674 50.3271 9.10944C50.233 8.87209 50.0921 8.65622 49.9128 8.47472C49.7334 8.29321 49.5193 8.14982 49.2834 8.05312C49.0475 7.95642 48.7945 7.90838 48.5397 7.91192C48.2847 7.90838 48.0318 7.95642 47.7958 8.05312C47.5598 8.14982 47.3458 8.29321 47.1665 8.47472C46.9872 8.65622 46.8462 8.87209 46.7521 9.10944C46.658 9.34674 46.6127 9.60069 46.6188 9.85607C46.6127 10.1114 46.658 10.3652 46.7521 10.6026C46.8462 10.84 46.9872 11.0558 47.1665 11.2374C47.3458 11.4188 47.5598 11.5623 47.7958 11.6589C48.0318 11.7557 48.2847 11.8036 48.5397 11.8001C48.7945 11.8036 49.0475 11.7557 49.2834 11.6589C49.5193 11.5623 49.7334 11.4188 49.9128 11.2374C50.0921 11.0558 50.233 10.84 50.3271 10.6026C50.4212 10.3652 50.4666 10.1114 50.4604 9.85607ZM54.1106 12.6248C54.1074 12.9163 54.1623 13.2056 54.2723 13.4755C54.3822 13.7454 54.5447 13.9907 54.7505 14.1967C54.9562 14.4029 55.201 14.5658 55.4705 14.6759C55.74 14.786 56.0286 14.8411 56.3196 14.8379C56.6205 14.8403 56.9188 14.7826 57.1973 14.6684C57.4756 14.5542 57.7286 14.3855 57.9413 14.1724C58.1541 13.9592 58.3224 13.7058 58.4364 13.4269C58.5505 13.148 58.608 12.8491 58.6057 12.5477C58.6107 12.2556 58.5571 11.9656 58.4478 11.6948C58.3386 11.424 58.1761 11.178 57.97 10.9715C57.7638 10.7649 57.5182 10.6022 57.2479 10.4928C56.9776 10.3833 56.6881 10.3295 56.3966 10.3346C56.0952 10.3325 55.7963 10.3904 55.5174 10.5047C55.2384 10.6191 54.9848 10.7877 54.7713 11.0008C54.5578 11.214 54.3886 11.4675 54.2735 11.7466C54.1584 12.0256 54.0996 12.3248 54.1007 12.6268L54.1106 12.6248ZM58.9512 0.758542L55.3404 9.49406H59.3736L62.9842 0.754583L58.9512 0.758542Z" fill="#6001D2"/>
<path d="M67.5637 4.83048C67.5637 3.80801 68.1994 3.36301 69.0088 3.36301C69.3752 3.36001 69.7374 3.43978 70.0688 3.59639V0.68124C69.5341 0.44981 68.9554 0.337776 68.3731 0.352933C65.6548 0.352933 64.0557 2.03201 64.0557 4.75334V5.06386H62.7646V7.90187H64.0557V14.7171H67.5637V7.90187H69.9326V5.06386H67.5637V4.83048ZM74.6705 14.719V5.06582H71.1487V14.719H74.6705ZM74.8818 2.2278C74.8745 1.70809 74.6633 1.21214 74.2939 0.847216C73.9244 0.482291 73.4265 0.277728 72.9076 0.277779C72.3888 0.277728 71.8908 0.482291 71.5214 0.847216C71.152 1.21214 70.9408 1.70809 70.9335 2.2278C70.9408 2.74752 71.152 3.24346 71.5214 3.60839C71.8908 3.97332 72.3888 4.17788 72.9076 4.17783C73.4265 4.17788 73.9244 3.97332 74.2939 3.60839C74.6633 3.24346 74.8745 2.74752 74.8818 2.2278ZM93.9223 5.06582V6.0883C93.3303 5.25767 92.2856 4.79487 91.1286 4.79487C88.5072 4.79487 86.6001 7.05342 86.6001 9.89143C86.6001 12.7294 88.4874 14.988 91.1286 14.988C92.2856 14.988 93.3006 14.5252 93.9223 13.6946V14.719H97.3923V5.06582H93.9223ZM94.0193 9.89143C94.0184 10.1507 93.9672 10.4072 93.8666 10.6462C93.766 10.8851 93.6195 11.1017 93.4354 11.2832C93.2503 11.4647 93.0312 11.6076 92.7913 11.7034C92.5506 11.7993 92.2937 11.8462 92.035 11.8415C91.7763 11.8464 91.5185 11.7997 91.2777 11.704C91.0379 11.6083 90.8187 11.4655 90.6337 11.2839C90.4486 11.1024 90.3013 10.8857 90.2016 10.6466C90.101 10.4076 90.0489 10.1509 90.0489 9.89143C90.0489 9.63209 90.101 9.37537 90.2016 9.13628C90.3013 8.8972 90.4486 8.68056 90.6337 8.499C90.8187 8.31745 91.0379 8.17465 91.2777 8.07891C91.5185 7.98318 91.7763 7.93643 92.035 7.94143C92.2937 7.93669 92.5506 7.98364 92.7913 8.07949C93.0312 8.17535 93.2503 8.31821 93.4354 8.49973C93.6195 8.68126 93.766 8.8978 93.8666 9.13674C93.9672 9.37573 94.0184 9.63227 94.0193 9.89143ZM104.835 14.7171H108.361V8.58616C108.361 6.2307 107.069 4.78301 105.005 4.78301C103.868 4.78301 102.942 5.26558 102.383 6.16742V5.04803H98.8592V14.7013H102.387V9.55924C102.387 8.57035 102.869 7.97703 103.639 7.97703C104.409 7.97703 104.835 8.51891 104.835 9.44444V14.7171ZM82.1129 14.7171H85.6407V8.58616C85.6407 6.2307 84.3497 4.78301 82.2847 4.78301C81.1477 4.78301 80.2237 5.26558 79.6631 6.16742V5.04803H76.1393V14.7013H79.665V9.55924C79.665 8.57035 80.1467 7.97703 80.9186 7.97703C81.6905 7.97703 82.1031 8.51891 82.1031 9.44444L82.1129 14.7171ZM109.324 9.88945C109.324 13.0182 111.561 14.986 114.47 14.986C115.273 14.9895 116.065 14.8046 116.783 14.4461V11.2403C116.274 11.6149 115.661 11.8178 115.029 11.8198C113.796 11.8198 112.889 11.0484 112.889 9.88945C112.889 8.73053 113.816 7.95921 115.029 7.95921C115.654 7.95986 116.265 8.14791 116.783 8.49915V5.29524C116.077 4.96523 115.307 4.79379 114.528 4.79291C111.484 4.79291 109.324 6.93476 109.324 9.88945ZM124.201 11.4538C124.024 11.712 123.785 11.9203 123.505 12.0588C123.225 12.1973 122.914 12.2614 122.602 12.2449C121.678 12.2449 120.926 11.6516 120.869 10.7775H127.518C127.543 10.5337 127.556 10.2888 127.556 10.0438C127.556 6.87939 125.512 4.79291 122.545 4.79291C121.87 4.77947 121.2 4.90259 120.575 5.15495C119.949 5.40731 119.38 5.7837 118.903 6.2615C118.426 6.7393 118.051 7.30869 117.799 7.93551C117.547 8.56233 117.425 9.23368 117.437 9.9093C117.437 12.9786 119.441 14.986 122.583 14.986C124.703 14.986 126.284 14.1751 127.208 12.6128L124.201 11.4538ZM120.887 8.7701C120.964 7.97901 121.639 7.45689 122.525 7.45689C123.412 7.45689 124.067 7.97901 124.144 8.7701H120.887Z" fill="white"/>
</svg>
