<?xml version="1.0" encoding="UTF-8"?>
<svg width="400" height="40" id="Layer_2" data-name="Layer 2" xmlns="http://www.w3.org/2000/svg" viewBox="0 0 800.658 80">
  <defs>
    <style>
      .cls-1 {
        fill: #fff;
      }

      .cls-2 {
        fill: #c30044;
      }

      .cls-3 {
        fill: #a9a9a9;
      }
    </style>
  </defs>
  <g>
    <g>
      <path class="cls-1" d="M3.9532,39.6328c0-5.5729,4.0601-13.6828,17.4847-13.6828,6.9812,0,12.9272,3.1692,15.9829,7.8514l9.8711-9.0013c-6.7015-8.2352-16.0861-10.2548-25.854-10.2548C11.9308,14.5453,4.8963,17.3878.0001,21.4654v38.4704c12.1441,9.442,32.572,8.0799,34.992,20.0641H3.9943h72.0118-27.8703c-.9938-30.9139-44.1827-17.943-44.1827-40.3672h0ZM1.5405,23.1656c.0244-.0174.0488-.0347.0733-.052-.0245.0173-.0489.0346-.0733.052Z"/>
      <g>
        <path class="cls-2" d="M0,59.9359v16.0641c0,2.2072,1.7878,3.9969,3.9943,3.9999h30.9977c-2.42-11.9841-22.8479-10.622-34.992-20.0641h0Z"/>
        <path class="cls-2" d="M76.0001,0H3.9999C1.7908,0,0,1.7909,0,4v17.4654c4.8962-4.0775,11.9308-6.9201,21.4378-6.9201,9.7679,0,19.1525,2.0196,25.854,10.2548l-9.8711,9.0013c-3.0556-4.6822-9.0016-7.8514-15.9829-7.8514-13.4246,0-17.4847,8.1098-17.4847,13.6828,0,22.4242,43.1888,9.4533,44.1827,40.3672h27.8703c2.2063-.0033,3.9939-1.7928,3.9939-3.9999V4c0-2.2091-1.7908-4-3.9999-4Z"/>
      </g>
    </g>
    <g>
      <path d="M103.1475,59.7842c-2.7-1.2246-4.8376-2.8875-6.4126-4.9873-1.575-2.1001-2.4375-4.425-2.5874-6.9751h10.575c.1992,1.6008.9868,2.925,2.3625,3.9751,1.3745,1.0498,3.0867,1.575,5.1375,1.575,1.9993,0,3.5625-.3997,4.6875-1.2,1.125-.7993,1.6875-1.8247,1.6875-3.0752,0-1.3499-.688-2.3623-2.0625-3.0374-1.3757-.675-3.5625-1.4121-6.5625-2.2126-3.1008-.75-5.6379-1.5244-7.6125-2.325-1.9758-.7991-3.675-2.0249-5.0999-3.675-1.425-1.6499-2.1377-3.874-2.1377-6.6748,0-2.2993.6621-4.3994,1.9875-6.3,1.3242-1.8997,3.2251-3.3997,5.7-4.5,2.4751-1.0994,5.3872-1.6501,8.7375-1.6501,4.95,0,8.8992,1.2375,11.8501,3.7126,2.9495,2.4749,4.575,5.8125,4.875,10.0125h-10.05c-.1499-1.6499-.8379-2.9624-2.0625-3.9375-1.2258-.9751-2.8628-1.4624-4.9126-1.4624-1.9006,0-3.3633.3503-4.3875,1.0498-1.0254.7009-1.5374,1.6758-1.5374,2.925,0,1.4004.6995,2.4634,2.0999,3.1875,1.3992.7253,3.5742,1.4626,6.5251,2.2126,3,.75,5.4749,1.5256,7.4248,2.325,1.9502.8003,3.6377,2.0378,5.0625,3.7124,1.425,1.6758,2.1621,3.8884,2.2126,6.6375,0,2.4001-.6633,4.5505-1.9875,6.4502-1.3254,1.9006-3.2251,3.3877-5.7,4.4624-2.4751,1.0747-5.3625,1.6123-8.6626,1.6123-3.4006,0-6.45-.6128-9.1499-1.8374h.0001Z"/>
      <path d="M231.884,28.8467c1.6746-3.2495,3.9492-5.749,6.825-7.5,2.8745-1.7495,6.0867-2.625,9.6375-2.625,3.0996,0,5.8125.626,8.1375,1.875,2.3252,1.2505,4.1873,2.8254,5.5876,4.7251v-5.925h10.575v41.55h-10.575v-6.075c-1.3501,1.95-3.2134,3.5625-5.5876,4.8374-2.3752,1.2751-5.1128,1.9124-8.2124,1.9124-3.5005,0-6.688-.8999-9.5625-2.6997-2.8757-1.8-5.1504-4.3372-6.825-7.6125-1.6758-3.2742-2.5125-7.0371-2.5125-11.2876,0-4.2.8367-7.9241,2.5125-11.175h-.0001ZM260.5715,33.6094c-1.0007-1.8247-2.3508-3.2251-4.05-4.2002-1.7004-.9749-3.5249-1.4624-5.4751-1.4624s-3.75.4758-5.3999,1.425c-1.6499.9504-2.9883,2.3379-4.0125,4.1624-1.0254,1.8259-1.5376,3.988-1.5376,6.4875s.5122,4.6875,1.5376,6.5625c1.0242,1.875,2.3743,3.313,4.05,4.3125,1.6746,1.0007,3.4617,1.5,5.3623,1.5,1.9502,0,3.7747-.4875,5.4751-1.4624,1.6992-.9751,3.0493-2.3743,4.05-4.2.9995-1.8247,1.5-4.0127,1.5-6.5625s-.5005-4.7368-1.5-6.5625h0Z"/>
      <path d="M296.8335,20.6719c2.175-1.2493,4.6619-1.875,7.4626-1.875v11.0249h-2.7751c-3.2998,0-5.7878.7759-7.4624,2.325-1.6758,1.5505-2.5125,4.2505-2.5125,8.1001v20.7h-10.5V19.3967h10.5v6.45c1.3499-2.1995,3.1125-3.9246,5.2874-5.1748Z"/>
      <path d="M347.7954,43.3218h-30.375c.2495,3,1.2996,5.3508,3.1499,7.05,1.8494,1.7004,4.125,2.55,6.8252,2.55,3.8999,0,6.6748-1.6748,8.325-5.0251h11.325c-1.1997,4.0007-3.5005,7.2878-6.8999,9.8625-3.4009,2.5757-7.5752,3.8623-12.5251,3.8623-4.0007,0-7.5879-.8867-10.7625-2.6624-3.1758-1.7742-5.6509-4.2866-7.425-7.5374-1.7754-3.2498-2.6624-6.9998-2.6624-11.25,0-4.2998.874-8.0742,2.625-11.3252,1.7495-3.2495,4.2-5.749,7.3499-7.5,3.1501-1.7495,6.7747-2.625,10.875-2.625,3.9492,0,7.4871.8508,10.6125,2.55,3.1245,1.7004,5.5503,4.1133,7.2749,7.2375,1.7251,3.1255,2.5879,6.7124,2.5879,10.7625,0,1.5-.1011,2.8501-.3003,4.05v.0003ZM337.2205,36.2717c-.0505-2.7-1.0254-4.8621-2.925-6.4875-1.9009-1.624-4.2258-2.4375-6.9751-2.4375-2.6003,0-4.7881.7876-6.5625,2.3625-1.7754,1.575-2.8628,3.7629-3.2625,6.5625h19.7251Z"/>
      <path d="M353.6821,28.8467c1.6748-3.2495,3.9624-5.749,6.8628-7.5,2.8989-1.7495,6.124-2.625,9.6748-2.625,2.7002,0,5.2744.5884,7.7251,1.7627,2.4492,1.1753,4.3989,2.7373,5.8501,4.6875V3.5791h10.6499v57.3677h-10.6499v-6.1499c-1.3008,2.0508-3.1255,3.7007-5.4751,4.95-2.3511,1.2493-5.0757,1.8748-8.1753,1.8748-3.5,0-6.7007-.8999-9.5996-2.6997-2.9004-1.8-5.188-4.3372-6.8628-7.6125-1.6758-3.2742-2.5122-7.0371-2.5122-11.2876,0-4.2.8364-7.9241,2.5122-11.175v-.0002ZM382.3696,33.6094c-1.0005-1.8247-2.3506-3.2251-4.0498-4.2002-1.7007-.9749-3.5249-1.4624-5.4751-1.4624s-3.75.4758-5.3999,1.425c-1.6499.9504-2.9883,2.3379-4.0127,4.1624-1.0254,1.8259-1.5376,3.988-1.5376,6.4875s.5122,4.6875,1.5376,6.5625c1.0244,1.875,2.3745,3.313,4.0503,4.3125,1.6743,1.0007,3.4614,1.5,5.3623,1.5,1.9502,0,3.7744-.4875,5.4751-1.4624,1.6992-.9751,3.0493-2.3743,4.0498-4.2.9995-1.8247,1.5-4.0127,1.5-6.5625s-.5005-4.7368-1.5-6.5625h0Z"/>
      <path d="M132.6973,40.3281c0-4.2505.8364-8.0134,2.5122-11.2876,1.6748-3.2754,3.9624-5.8125,6.8628-7.6125,2.8989-1.7998,6.0996-2.6997,9.5996-2.6997,3.0996,0,5.8242.6255,8.1753,1.8748,2.3496,1.2493,4.1743,2.8992,5.4751,4.95v-6.1499h10.6499v57.3677h-10.6499v-21.5928c-1.4512,1.9502-3.4009,3.5122-5.8501,4.6875-2.4507,1.1743-5.0249,1.7627-7.7251,1.7627-3.5508,0-6.7759-.8755-9.6748-2.625-2.9004-1.751-5.188-4.2505-6.8628-7.5-1.6758-3.251-2.5122-6.9751-2.5122-11.175v-.0002ZM165.397,40.1779c0-2.5498-.5005-4.7378-1.5-6.5625-1.0005-1.8257-2.3506-3.2249-4.0498-4.2-1.7007-.9749-3.5249-1.4624-5.4751-1.4624-1.9009,0-3.688.4993-5.3623,1.5-1.6758.9995-3.0259,2.4375-4.0503,4.3125-1.0254,1.875-1.5376,4.0618-1.5376,6.5625s.5122,4.6616,1.5376,6.4875c1.0244,1.8245,2.3628,3.2119,4.0127,4.1624,1.6499.9492,3.4497,1.425,5.3999,1.425s3.7744-.4875,5.4751-1.4624c1.6992-.9751,3.0493-2.3755,4.0498-4.2002.9995-1.8257,1.5-4.0125,1.5-6.5625h0Z"/>
      <path d="M420.1694,25.4717h-8.625v35.4751h-6.8252V25.4717h-5.3247v-5.625h5.3247v-2.9248c0-4.5996,1.187-7.9619,3.5625-10.0876,2.3745-2.1245,6.1875-3.1875,11.4375-3.1875v5.7c-3,0-5.1128.5884-6.3374,1.7627-1.2256,1.1753-1.8374,3.1123-1.8374,5.8125v2.9248h8.625v5.625h0Z"/>
      <path d="M474.9932,23.6343c3.0996,3.0259,4.6499,7.3875,4.6499,13.0874v24.2251h-6.75v-23.25c0-4.0991-1.0254-7.2375-3.0752-9.4126-2.0508-2.1748-4.8501-3.2625-8.3999-3.2625-3.6001,0-6.4629,1.125-8.5874,3.375-2.126,2.25-3.1875,5.5254-3.1875,9.825v22.7251h-6.8252V19.8467h6.8252v5.8501c1.3496-2.1001,3.1875-3.7241,5.5122-4.875,2.3252-1.1497,4.8867-1.7251,7.6875-1.7251,4.9995,0,9.0493,1.5129,12.1504,4.5376Z"/>
      <path d="M488.9429,29.1843c1.6992-3.1746,4.0371-5.6367,7.0127-7.3875,2.9741-1.7498,6.2871-2.625,9.9375-2.625,3.6001,0,6.7241.7756,9.375,2.325,2.6494,1.5503,4.624,3.5002,5.9248,5.8499v-7.5h6.8999v41.1001h-6.8999v-7.6499c-1.3501,2.3999-3.3633,4.3875-6.0376,5.9624-2.6753,1.5752-5.7876,2.3623-9.3374,2.3623-3.6504,0-6.9502-.8999-9.8999-2.6997-2.9507-1.8-5.2759-4.3242-6.9751-7.5752-1.7002-3.2495-2.5498-6.9492-2.5498-11.0999,0-4.2.8496-7.8867,2.5498-11.0625h0ZM519.3179,32.2217c-1.2505-2.2991-2.938-4.0615-5.0625-5.2874-2.1255-1.2246-4.4624-1.8376-7.0122-1.8376s-4.875.6001-6.9751,1.8c-2.1001,1.2-3.7759,2.9509-5.0249,5.25-1.2505,2.3005-1.875,5.0005-1.875,8.1001,0,3.1499.6245,5.8875,1.875,8.2124,1.249,2.325,2.9248,4.1003,5.0249,5.325,2.1001,1.2258,4.4248,1.8376,6.9751,1.8376s4.8867-.6118,7.0122-1.8376c2.1245-1.2246,3.812-3,5.0625-5.325,1.2495-2.325,1.875-5.0366,1.875-8.1375s-.6255-5.7996-1.875-8.1001h0Z"/>
      <path d="M569.9429,23.6343c3.0996,3.0259,4.6499,7.3875,4.6499,13.0874v24.2251h-6.75v-23.25c0-4.0991-1.0254-7.2375-3.0752-9.4126-2.0508-2.1748-4.8501-3.2625-8.3999-3.2625-3.6001,0-6.4629,1.125-8.5874,3.375-2.126,2.25-3.1875,5.5254-3.1875,9.825v22.7251h-6.8252V19.8467h6.8252v5.8501c1.3501-2.1001,3.1875-3.7241,5.5122-4.875,2.3252-1.1497,4.8867-1.7251,7.6875-1.7251,4.9995,0,9.0493,1.5129,12.1504,4.5376Z"/>
      <path d="M583.8926,29.1843c1.6992-3.1746,4.062-5.6367,7.0874-7.3875,3.0249-1.7498,6.4878-2.625,10.3877-2.625,5.0498,0,9.2119,1.2256,12.4873,3.6748,3.2744,2.4504,5.4375,5.8501,6.4878,10.2002h-7.3501c-.7007-2.4998-2.0625-4.4744-4.0874-5.925-2.0249-1.4497-4.5376-2.175-7.5376-2.175-3.8999,0-7.0498,1.3384-9.4502,4.0125-2.3999,2.6755-3.5996,6.4629-3.5996,11.3625,0,4.95,1.1997,8.7749,3.5996,11.4751,2.4004,2.7,5.5503,4.0498,9.4502,4.0498,3,0,5.4995-.6995,7.5-2.0999,1.999-1.3992,3.375-3.3997,4.125-6h7.3501c-1.1006,4.2-3.3003,7.5632-6.6001,10.0874-3.2998,2.5254-7.4248,3.7874-12.375,3.7874-3.8999,0-7.3628-.874-10.3877-2.6248-3.0254-1.7498-5.3882-4.2246-7.0874-7.425-1.7002-3.1992-2.5498-6.9492-2.5498-11.25,0-4.2493.8496-7.9617,2.5498-11.1375Z"/>
      <path d="M644.1162,29.1843c1.6992-3.1746,4.0371-5.6367,7.0127-7.3875,2.9741-1.7498,6.2871-2.625,9.9375-2.625,3.6001,0,6.7241.7756,9.375,2.325,2.6494,1.5503,4.624,3.5002,5.9248,5.8499v-7.5h6.8999v41.1001h-6.8999v-7.6499c-1.3501,2.3999-3.3633,4.3875-6.0376,5.9624-2.6753,1.5752-5.7876,2.3623-9.3374,2.3623-3.6504,0-6.9502-.8999-9.8999-2.6997-2.9507-1.8-5.2759-4.3242-6.9751-7.5752-1.7002-3.2495-2.5498-6.9492-2.5498-11.0999,0-4.2.8496-7.8867,2.5498-11.0625ZM674.4912,32.2217c-1.2505-2.2991-2.938-4.0615-5.0625-5.2874-2.1255-1.2246-4.4624-1.8376-7.0122-1.8376s-4.875.6001-6.9751,1.8c-2.1001,1.2-3.7759,2.9509-5.0249,5.25-1.2505,2.3005-1.875,5.0005-1.875,8.1001,0,3.1499.6245,5.8875,1.875,8.2124,1.249,2.325,2.9248,4.1003,5.0249,5.325,2.1001,1.2258,4.4248,1.8376,6.9751,1.8376s4.8867-.6118,7.0122-1.8376c2.1245-1.2246,3.812-3,5.0625-5.325,1.2495-2.325,1.875-5.0366,1.875-8.1375s-.6255-5.7996-1.875-8.1001h0Z"/>
      <path d="M699.7661,3.5791v57.3677h-6.8252V3.5791h6.8252Z"/>
      <path d="M426.4312,11.8218c-.8999-.8999-1.3501-1.9993-1.3501-3.3,0-1.2996.4502-2.3999,1.3501-3.3.8999-.8999,1.9995-1.3499,3.3003-1.3499,1.249,0,2.312.45,3.1875,1.3499.874.9001,1.3125,2.0005,1.3125,3.3,0,1.3008-.4385,2.4001-1.3125,3.3-.8755.8999-1.9385,1.3501-3.1875,1.3501-1.3008,0-2.4004-.4502-3.3003-1.3501ZM433.0313,19.8467v41.1001h-6.8252V19.8467h6.8252Z"/>
      <path d="M213.0217,19.3967v22.875c0,.6044-.0283,1.1826-.0836,1.7359-.2468,2.4677-1.0435,4.4274-2.3912,5.8766-1.6501,1.7754-3.9258,2.6626-6.8252,2.6626-2.8499,0-5.0999-.8872-6.75-2.6626-1.3477-1.4493-2.1444-3.409-2.3912-5.8766-.0553-.5533-.0836-1.1315-.0836-1.7359v-22.875h-10.6187v21.5906c0,4.0754.8505,7.6712,2.5528,10.7872,1.7012,3.117,4.0745,5.5261,7.1196,7.2273,2.9894,1.6721,6.3613,2.5198,10.1147,2.5498v.0004h.0128c.0025,0,.0049,0,.0074,0,.0017,0,.0035,0,.0052,0v-.0005c3.7534-.03,7.1254-.8777,10.1147-2.5498,3.0452-1.7012,5.4184-4.1103,7.1196-7.2273,1.7024-3.1161,2.5528-6.7118,2.5528-10.7872v-21.5906h-10.4562.0001Z"/>
      <path d="M627.7668,11.8218c-.8999-.8999-1.3501-1.9993-1.3501-3.3,0-1.2996.4502-2.3999,1.3501-3.3.8999-.8999,1.9995-1.3499,3.3003-1.3499,1.249,0,2.312.45,3.1875,1.3499.874.9001,1.3125,2.0005,1.3125,3.3,0,1.3008-.4385,2.4001-1.3125,3.3-.8755.8999-1.9385,1.3501-3.1875,1.3501-1.3008,0-2.4004-.4502-3.3003-1.3501ZM634.3669,19.8467v41.1001h-6.8252V19.8467h6.8252Z"/>
    </g>
  </g>
  <path class="cls-3" d="M721.04,0h-.5479v80h.5479V0Z"/>
  <g>
    <path d="M761.3961,34.989c4.5152-4.1522,8.7142-9.5936,9.1275-14.3174.6012-6.8727-4.7185-13.1716-12.0183-13.1716-7.0165,0-13.3631,5.4396-13.9644,12.3123l6.5787,1.7177c.3131-3.5791,3.5843-6.5855,7.0196-6.5855,2.4333,0,5.0724,2.577,4.7592,6.1562-.3508,4.0093-7.2394,10.7384-22.2164,23.1942l-.1252,1.4312h8.1603c4.6464-4.0083,8.3573-7.1582,12.6788-10.7372h.0001Z"/>
    <path d="M780.5946,30.9972c-9.1228,0-15.8171,5.4923-18.0345,14.1984h6.6835c1.7915-5.5086,5.9064-8.9125,11.3509-8.9125,7.3761,0,12.33,6.2505,12.33,15.5459,0,9.0542-5.0747,15.3851-12.33,15.3851-5.4766,0-9.6102-3.4032-11.3846-8.9125h-6.6798c2.1887,8.7011,8.9032,14.1984,18.0645,14.1984,11.255,0,18.8219-8.3107,18.8219-20.6709,0-12.4608-7.5669-20.8318-18.8219-20.8318h0Z"/>
    <g>
      <path d="M744.1142,53.1826l-.7449,2.328h-2.2349l.7821-2.4584-1.3596-5.0285h2.2534l.7263,2.9425h.2048l2.5887-2.9425h2.477l-4.6932,5.1588h.0001Z"/>
      <path d="M753.5937,49.8117l-.3911,1.1919h4.3394l-.4656,1.4526h-4.3394l-.4097,1.2478h4.3766l-.596,1.7879h-6.6115l2.4212-7.4868h6.6301l-.596,1.7879h-4.3766l.0186.0186h-.0001Z"/>
      <path d="M765.5504,54.4304h-3.3151l-.7263,1.0802h-2.4025l5.1589-7.4868h3.1474l.3911,7.4868h-2.2163v-1.0802h-.0373.0002ZM765.5131,52.7729l-.0745-2.6446h-.3353l-1.7693,2.6446h2.1791Z"/>
      <path d="M777.8049,53.0523l.5773,2.4584h-2.1417l-.447-2.0301h-2.1417l-.6518,2.0301h-2.2535l2.4212-7.4868h3.8178c1.8437,0,2.7377.7077,2.7377,2.1231s-.8194,2.3652-1.8996,2.8868l-.0186.0186h0ZM774.1732,51.8417h1.8439c.6705,0,1.434-.4284,1.434-1.2105,0-.5587-.3167-.7264-.9685-.7264h-1.6761l-.6146,1.9369h-.0187Z"/>
      <path d="M781.9022,53.0895h1.8996c-.149.6705.5215.9312,1.4526.9312s1.8066-.2421,1.8066-.8567c0-.3167-.2048-.54-.9685-.6705l-.596-.1118c-.8008-.1303-2.5515-.4097-2.5515-1.8996,0-1.7507,1.6575-2.7191,3.9669-2.7191s3.613.9499,2.8681,2.6446h-1.8437c.093-.4842-.2794-.9312-1.3409-.9312-.9313,0-1.5272.3352-1.5272.8381,0,.2794.2048.5029.8194.6146l.447.0932c1.0802.2235,2.9054.3724,2.9054,1.9369,0,2.0672-2.0301,2.775-4.3208,2.775s-3.7062-.7077-3.0357-2.6633l.0186.0186h0Z"/>
    </g>
  </g>
</svg>