<svg width="600" height="600" viewBox="0 0 600 600" fill="none" xmlns="http://www.w3.org/2000/svg">
<path d="M517.54 292.531L581.057 276.067C581.361 275.987 581.68 275.979 581.989 276.041C582.297 276.104 582.587 276.237 582.836 276.429C583.085 276.622 583.287 276.869 583.425 277.151C583.564 277.434 583.636 277.744 583.636 278.059L583.636 310.988C583.635 311.302 583.563 311.612 583.424 311.894C583.285 312.176 583.083 312.423 582.834 312.615C582.585 312.807 582.296 312.94 581.988 313.003C581.68 313.066 581.361 313.058 581.057 312.979L517.54 296.515C517.099 296.4 516.709 296.143 516.43 295.782C516.151 295.422 516 294.979 516 294.523C516 294.068 516.151 293.625 516.43 293.264C516.709 292.904 517.099 292.646 517.54 292.531Z" fill="black"/>
<g style="mix-blend-mode:multiply" opacity="0.65" filter="url(#filter0_f_4163_848)">
<circle cx="300" cy="300" r="280" stroke="black" stroke-width="10"/>
</g>
<path fill-rule="evenodd" clip-rule="evenodd" d="M299.991 3.57361e-05C320.29 -0.00983463 340.54 2.02498 360.431 6.07523C379.74 10.0325 398.61 15.8924 416.765 23.5674C470.339 46.2642 516.18 84.0118 548.735 132.236C570.687 164.693 586.036 201.154 593.906 239.539C602.031 279.424 602.031 320.538 593.906 360.423C589.949 379.733 584.09 398.603 576.415 416.759C553.719 470.334 515.972 516.177 467.749 548.732C435.293 570.685 398.834 586.035 360.45 593.905C320.566 602.031 279.453 602.031 239.57 593.905C220.261 589.948 201.39 584.089 183.235 576.414C129.661 553.717 83.8203 515.969 51.266 467.744C29.3139 435.287 13.9642 398.827 6.09411 360.441C-2.0316 320.557 -2.03162 279.442 6.09411 239.558C10.0513 220.248 15.9105 201.377 23.5853 183.222C46.2844 129.653 84.031 83.817 132.251 51.2666C164.707 29.3139 201.167 13.9642 239.551 6.09379C259.442 2.03737 279.691 -0.00371603 299.991 3.57361e-05ZM299.991 18.5127C144.536 18.5129 18.5131 144.541 18.5131 300C18.5133 455.459 144.536 581.486 299.991 581.486C452.504 581.486 576.689 460.183 581.333 308.791L518.54 292.515C518.099 292.4 517.709 292.142 517.43 291.781C517.151 291.421 517 290.978 517 290.522C517 290.067 517.151 289.624 517.43 289.264C517.709 288.903 518.1 288.646 518.54 288.531L580.148 272.561C566.354 129.977 446.188 18.5127 299.991 18.5127Z" fill="url(#paint0_linear_4163_848)"/>
<defs>
<filter id="filter0_f_4163_848" x="0" y="0" width="600" height="600" filterUnits="userSpaceOnUse" color-interpolation-filters="sRGB">
<feFlood flood-opacity="0" result="BackgroundImageFix"/>
<feBlend mode="normal" in="SourceGraphic" in2="BackgroundImageFix" result="shape"/>
<feGaussianBlur stdDeviation="7.5" result="effect1_foregroundBlur_4163_848"/>
</filter>
<linearGradient id="paint0_linear_4163_848" x1="205.425" y1="404.03" x2="-46.6815" y2="316.641" gradientUnits="userSpaceOnUse">
<stop stop-color="#E6892B"/>
<stop offset="1" stop-color="#EEE3B8"/>
</linearGradient>
</defs>
</svg>
