<svg width="610" height="610" viewBox="0 0 610 610" fill="none" xmlns="http://www.w3.org/2000/svg">
<g style="mix-blend-mode:multiply" opacity="0.35" filter="url(#filter0_f_4246_15)">
<path d="M305 15C465.163 15 595 144.837 595 305C595 465.163 465.163 595 305 595C144.837 595 15 465.163 15 305C15 144.837 144.837 15 305 15ZM305 34.333C155.515 34.333 34.333 155.515 34.333 305C34.333 454.485 155.515 575.667 305 575.667C450.974 575.667 569.958 460.111 575.467 315.485C575.209 315.458 574.948 315.379 574.7 315.235L551.5 301.841C550.211 301.097 550.211 299.236 551.5 298.492L574.7 285.098C574.778 285.053 574.856 285.014 574.936 284.981C564.691 144.844 447.752 34.333 305 34.333Z" fill="black"/>
</g>
<path d="M305 5C470.685 5 605 139.315 605 305C605 470.685 470.685 605 305 605C139.315 605 5 470.685 5 305C5 139.315 139.315 5 305 5ZM305 25C150.36 25 25 150.36 25 305C25 459.64 150.36 585 305 585C456.007 585 579.094 465.46 584.793 315.848C584.526 315.82 584.257 315.737 584 315.589L560 301.732C558.667 300.963 558.667 299.037 560 298.268L584 284.411C584.08 284.365 584.162 284.324 584.244 284.29C573.645 139.321 452.674 25 305 25Z" fill="url(#paint0_linear_4246_15)"/>
<defs>
<filter id="filter0_f_4246_15" x="0" y="0" width="610" height="610" filterUnits="userSpaceOnUse" color-interpolation-filters="sRGB">
<feFlood flood-opacity="0" result="BackgroundImageFix"/>
<feBlend mode="normal" in="SourceGraphic" in2="BackgroundImageFix" result="shape"/>
<feGaussianBlur stdDeviation="7.5" result="effect1_foregroundBlur_4246_15"/>
</filter>
<linearGradient id="paint0_linear_4246_15" x1="107" y1="-11" x2="543" y2="585" gradientUnits="userSpaceOnUse">
<stop stop-color="#ECCF99"/>
<stop offset="0.511883" stop-color="#E6892B"/>
</linearGradient>
</defs>
</svg>
