<svg width="33" height="33" viewBox="0 0 33 33" fill="none" xmlns="http://www.w3.org/2000/svg">
<path d="M25.4121 0.0107422C29.6389 0.225231 33 3.71994 33 8V25L32.9893 25.4121C32.7817 29.5024 29.5024 32.7817 25.4121 32.9893L25 33H8C3.71994 33 0.225231 29.6389 0.0107422 25.4121L0 25V8C1.28855e-07 3.58172 3.58172 1.28851e-07 8 0H25L25.4121 0.0107422ZM9.68555 24.708C7.63052 24.8262 5.72572 25.8239 4.41016 27.4854L4.31738 27.5918C4.28591 27.6242 4.25256 27.654 4.21875 27.6826C4.20202 27.6968 4.18424 27.7094 4.16699 27.7227C4.14997 27.7357 4.13371 27.7496 4.11621 27.7617C4.09945 27.7734 4.08161 27.7832 4.06445 27.7939C4.04456 27.8064 4.02527 27.8197 4.00488 27.8311C3.99214 27.8382 3.97874 27.8439 3.96582 27.8506C3.94791 27.8598 3.93034 27.8696 3.91211 27.8779C4.8172 29.1612 6.31028 30 8 30H25C26.6646 30 28.1381 29.1857 29.0469 27.9346C29.0292 27.9289 29.0116 27.9234 28.9941 27.917C28.9695 27.908 28.9451 27.8982 28.9209 27.8877C28.8935 27.8757 28.8666 27.8625 28.8398 27.8486C28.8125 27.8345 28.7853 27.8199 28.7588 27.8037C28.7476 27.7968 28.7367 27.7895 28.7256 27.7822C28.6987 27.7647 28.6723 27.7462 28.6465 27.7266C28.6327 27.7161 28.6189 27.7054 28.6055 27.6943C28.571 27.666 28.537 27.6367 28.5049 27.6045L28.3984 27.4854C26.9951 25.7132 24.9223 24.6963 22.7109 24.6963H10.0986L9.68555 24.708ZM8 3C5.23858 3 3 5.23858 3 8V24.915C4.87973 22.978 7.41454 21.8848 10.0986 21.8848H22.7109C25.4851 21.8848 28.0993 23.053 29.9961 25.1133C29.9969 25.0756 30 25.0379 30 25V8C30 5.23858 27.7614 3 25 3H8ZM16.7012 6C20.2982 6.00017 23.2246 9.0275 23.2246 12.748L23.2158 13.0947C23.2052 13.3094 23.1849 13.5215 23.1553 13.7305C23.1478 13.7831 23.1385 13.8354 23.1299 13.8877C23.1188 13.9547 23.1077 14.0216 23.0947 14.0879C23.0848 14.1387 23.0726 14.1889 23.0615 14.2393C23.0491 14.2961 23.0373 14.3529 23.0234 14.4092C23.0107 14.461 22.9953 14.5121 22.9814 14.5635C22.9671 14.6166 22.9541 14.67 22.9385 14.7227C22.8914 14.8813 22.8381 15.037 22.7803 15.1904C22.7626 15.2374 22.7453 15.2846 22.7266 15.3311C22.7095 15.3735 22.6907 15.4151 22.6729 15.457C22.646 15.52 22.6185 15.5825 22.5898 15.6445C22.5784 15.6693 22.5674 15.6942 22.5557 15.7188C22.5214 15.7908 22.4859 15.8621 22.4492 15.9326C22.4316 15.9665 22.4127 15.9997 22.3945 16.0332C22.3642 16.0893 22.3336 16.1451 22.3018 16.2002C22.2756 16.2455 22.2489 16.2904 22.2217 16.335C22.1936 16.381 22.1648 16.4264 22.1357 16.4717C22.11 16.5117 22.0841 16.5514 22.0576 16.5908C22.0256 16.6384 21.9931 16.6857 21.96 16.7324C21.9246 16.7822 21.8882 16.8311 21.8516 16.8799C21.8305 16.908 21.8096 16.9361 21.7881 16.9639C21.7471 17.0166 21.7055 17.0687 21.6631 17.1201C21.6329 17.1567 21.6022 17.1926 21.5713 17.2285C21.5397 17.2653 21.508 17.3019 21.4756 17.3379C21.4374 17.3804 21.3986 17.4224 21.3594 17.4639C21.3244 17.5008 21.2887 17.5371 21.2529 17.5732C21.2184 17.6081 21.1837 17.6427 21.1484 17.6768C21.1057 17.7181 21.0624 17.7587 21.0186 17.7988C20.9823 17.832 20.9452 17.8641 20.9082 17.8965C20.8738 17.9266 20.8397 17.9569 20.8047 17.9863C20.7614 18.0226 20.718 18.0586 20.6738 18.0938C20.6259 18.132 20.5773 18.1692 20.5283 18.2061C20.5009 18.2267 20.473 18.2464 20.4453 18.2666C20.3936 18.3043 20.3419 18.3418 20.2891 18.3779C20.2478 18.4062 20.206 18.4336 20.1641 18.4609C20.1223 18.4881 20.0804 18.5148 20.0381 18.541C19.9893 18.5712 19.9402 18.601 19.8906 18.6299C19.8475 18.655 19.8044 18.68 19.7607 18.7041C19.7179 18.7277 19.6743 18.7498 19.6309 18.7725C19.5818 18.7981 19.5331 18.8243 19.4834 18.8486C19.4269 18.8763 19.3698 18.9027 19.3125 18.9287C19.28 18.9435 19.2476 18.9584 19.2148 18.9727C19.1517 19.0001 19.0876 19.0254 19.0234 19.0508C18.9854 19.0658 18.9476 19.0814 18.9092 19.0957C18.854 19.1163 18.7981 19.1352 18.7422 19.1543C18.6999 19.1687 18.6579 19.1837 18.6152 19.1973C18.5536 19.2169 18.4911 19.2342 18.4287 19.252C18.387 19.2638 18.3457 19.2771 18.3037 19.2881C18.2368 19.3056 18.1692 19.3206 18.1016 19.3359C18.0683 19.3435 18.0354 19.3524 18.002 19.3594C17.9315 19.3742 17.8603 19.386 17.7891 19.3984C17.7519 19.4049 17.7151 19.4131 17.6777 19.4189C17.6195 19.428 17.5607 19.4339 17.502 19.4414C17.4522 19.4477 17.4026 19.4558 17.3525 19.4609C17.1382 19.483 16.921 19.4951 16.7012 19.4951C13.1041 19.4951 10.177 16.4685 10.1768 12.748C10.1768 9.02739 13.104 6 16.7012 6ZM16.7012 8.81152C14.6028 8.81152 12.8955 10.5777 12.8955 12.748C12.8958 14.9182 14.603 16.6836 16.7012 16.6836C16.938 16.6836 17.1695 16.6593 17.3945 16.6162C18.445 16.4152 19.3444 15.7674 19.9023 14.8701C19.957 14.7822 20.0087 14.6921 20.0566 14.5996C20.068 14.5776 20.0789 14.5554 20.0898 14.5332C20.327 14.0535 20.473 13.5178 20.501 12.9502L20.5059 12.748C20.5059 10.5778 18.7994 8.8117 16.7012 8.81152Z" fill="url(#paint0_linear_2018_7833)"/>
<defs>
<linearGradient id="paint0_linear_2018_7833" x1="16.5" y1="0" x2="16.5" y2="33" gradientUnits="userSpaceOnUse">
<stop stop-color="#C30044"/>
<stop offset="1" stop-color="white"/>
</linearGradient>
</defs>
</svg>
