<svg width="55" height="35" viewBox="0 0 55 35" fill="none" xmlns="http://www.w3.org/2000/svg">
<path fill-rule="evenodd" clip-rule="evenodd" d="M9.29692 35C8.27002 35 7.43755 34.181 7.43754 33.1707L7.43752 21.4738L3.17415 25.668C2.44802 26.3824 1.27073 26.3824 0.544596 25.668C-0.181534 24.9537 -0.181531 23.7954 0.5446 23.0811L7.83603 15.9078C8.64283 15.1141 9.95094 15.1141 10.7578 15.9078L18.0492 23.0811C18.7753 23.7955 18.7753 24.9537 18.0491 25.668C17.323 26.3824 16.1457 26.3824 15.4196 25.668L11.1563 21.4738L11.1563 33.1707C11.1563 34.181 10.3238 35 9.29692 35Z" fill="url(#paint0_linear_2018_8085)"/>
<path fill-rule="evenodd" clip-rule="evenodd" d="M26.7969 35C25.77 35 24.9375 34.181 24.9375 33.1707L24.9375 12.7238L20.6742 16.918C19.948 17.6324 18.7707 17.6324 18.0446 16.918C17.3185 16.2037 17.3185 15.0454 18.0446 14.3311L25.336 7.1578C26.1428 6.36407 27.4509 6.36406 28.2578 7.15781L35.5492 14.3311C36.2753 15.0455 36.2753 16.2037 35.5491 16.918C34.823 17.6324 33.6457 17.6324 32.9196 16.918L28.6563 12.7238L28.6563 33.1707C28.6563 34.181 27.8238 35 26.7969 35Z" fill="url(#paint1_linear_2018_8085)"/>
<path fill-rule="evenodd" clip-rule="evenodd" d="M45.3907 35C44.3638 35 43.5313 34.181 43.5313 33.1707L43.5313 6.16125L39.2679 10.3555C38.5418 11.0699 37.3645 11.0699 36.6383 10.3555C35.9122 9.64116 35.9122 8.48294 36.6384 7.76858L43.9298 0.595303C44.7366 -0.198427 46.0447 -0.198444 46.8515 0.595309L54.1429 7.7686C54.869 8.48296 54.869 9.64118 54.1429 10.3555C53.4168 11.0699 52.2395 11.0699 51.5133 10.3555L47.25 6.16128L47.25 33.1707C47.25 34.181 46.4176 35 45.3907 35Z" fill="url(#paint2_linear_2018_8085)"/>
<defs>
<linearGradient id="paint0_linear_2018_8085" x1="9.29688" y1="9.84375" x2="9.29688" y2="35" gradientUnits="userSpaceOnUse">
<stop stop-color="#C30044"/>
<stop offset="1" stop-color="white"/>
</linearGradient>
<linearGradient id="paint1_linear_2018_8085" x1="26.7969" y1="9.84375" x2="26.7969" y2="35" gradientUnits="userSpaceOnUse">
<stop stop-color="#C30044"/>
<stop offset="1" stop-color="white"/>
</linearGradient>
<linearGradient id="paint2_linear_2018_8085" x1="45.3906" y1="9.84375" x2="45.3906" y2="35" gradientUnits="userSpaceOnUse">
<stop stop-color="#C30044"/>
<stop offset="1" stop-color="white"/>
</linearGradient>
</defs>
</svg>
