<svg width="30" height="36" viewBox="0 0 30 36" fill="none" xmlns="http://www.w3.org/2000/svg">
<path fill-rule="evenodd" clip-rule="evenodd" d="M10.251 0C11.6647 0 13.0801 0.514718 14.1875 1.54688L14.4053 1.75977L14.5352 1.90039C14.6689 2.05142 14.7905 2.21034 14.9023 2.375C15.0492 2.15859 15.2139 1.95238 15.4004 1.75977L15.6172 1.54688C16.7244 0.515936 18.1397 0 19.5537 0C21.0615 3.53857e-06 22.5711 0.585268 23.707 1.75977L23.9082 1.97852C25.7296 4.05879 25.8868 7.12604 24.3799 9.37695H25.7969C27.998 9.37695 29.8005 11.1899 29.8008 13.3896V31.2344C29.8005 33.433 27.9977 35.2441 25.7969 35.2441H4.00488C1.87319 35.2441 0.113956 33.5461 0.00585938 31.4395L0 31.2344V13.3896C0.000235986 11.1897 1.804 9.37698 4.00488 9.37695H5.42188C3.86133 7.04584 4.08437 3.83899 6.09473 1.75977L6.3125 1.54688C7.41966 0.516078 8.83515 0 10.249 0H10.251ZM16.3906 12.208C16.3638 12.2087 16.3368 12.2084 16.3105 12.209V32.4199H25.7979C26.4653 32.4198 26.9755 31.9107 26.9756 31.2354V13.3916C26.9756 12.7161 26.4653 12.2061 25.7979 12.2061H16.4648L16.3906 12.208ZM3.96387 12.2061C3.31656 12.2265 2.82715 12.728 2.82715 13.3896V31.2334C2.82722 31.9089 3.33736 32.418 4.00488 32.418H13.4844V12.207L13.4102 12.2061H3.96387ZM2.99316 12.1602C2.82094 12.3022 2.68272 12.4821 2.58496 12.6875C2.70467 12.436 2.88637 12.2233 3.11426 12.0703L2.99316 12.1602ZM3.38281 11.9258C3.33519 11.9455 3.28909 11.9681 3.24414 11.9922L3.38281 11.9258C3.43015 11.9061 3.47857 11.8891 3.52832 11.874L3.38281 11.9258ZM5.73438 9.125C5.88389 9.35147 6.05099 9.56943 6.23633 9.77637L6.05859 9.56738C5.94248 9.42425 5.83445 9.27658 5.73438 9.125ZM19.5508 2.79883C18.7941 2.79887 18.0327 3.10153 17.4307 3.72363C17.3742 3.78263 17.2813 3.93094 17.1709 4.19238C17.0652 4.44278 16.9582 4.76171 16.8574 5.12598C16.6809 5.76391 16.5306 6.52138 16.4453 7.25879L16.4121 7.57324C16.3323 8.45474 16.3321 8.92689 16.3369 9.35156C16.7411 9.35694 17.1834 9.35719 18.0098 9.27734L18.3115 9.24414C19.0185 9.15759 19.7398 9.00725 20.3457 8.83008C20.6918 8.72887 20.9938 8.62124 21.2305 8.51465C21.4774 8.4034 21.6159 8.30965 21.6719 8.25195L21.7812 8.13281C22.8378 6.92161 22.8379 5.05195 21.7812 3.84082L21.6719 3.72168C21.0772 3.10589 20.3233 2.80434 19.5732 2.79883H19.5508ZM10.2109 2.79785C9.51402 2.80711 8.81532 3.07129 8.24316 3.60742L8.12891 3.7207C6.96438 4.92542 6.92765 6.88036 8.01953 8.13184L8.12891 8.25L8.18652 8.2998C8.26029 8.35554 8.38456 8.42896 8.57031 8.5127C8.80671 8.61926 9.10801 8.7279 9.4541 8.8291C10.1465 9.03154 10.99 9.19911 11.791 9.27637L12.498 9.33301C12.9047 9.35729 13.1912 9.3532 13.4609 9.34961C13.4645 9.06403 13.468 8.75735 13.4434 8.31934L13.3867 7.57227C13.3115 6.73908 13.1449 5.85308 12.9434 5.12402C12.8426 4.75961 12.7347 4.44077 12.6289 4.19043C12.5459 3.99402 12.4731 3.86173 12.418 3.7832L12.3682 3.72168C11.7681 3.10027 11.0058 2.79797 10.249 2.79785H10.2109ZM8.06738 8.70215C8.13678 8.74489 8.21672 8.78642 8.30469 8.8291C8.21292 8.78457 8.1301 8.74086 8.05859 8.69629L8.06738 8.70215ZM21.6973 8.72363C21.709 8.71673 21.7212 8.711 21.7324 8.7041L21.7412 8.69824C21.7271 8.70699 21.7122 8.71488 21.6973 8.72363ZM22.5781 4.31348C22.6307 4.41734 22.6786 4.52312 22.7207 4.63086C22.6574 4.46875 22.5811 4.31105 22.4941 4.1582L22.5781 4.31348ZM7.23145 4.29492C7.33631 4.09033 7.4618 3.8943 7.60742 3.70996L7.60352 3.71484C7.45953 3.89778 7.33537 4.09212 7.23145 4.29492ZM22.1973 3.7168C22.2342 3.76373 22.2704 3.81098 22.3047 3.85938L22.1973 3.7168C22.1605 3.67011 22.1224 3.62325 22.083 3.57812L22.1973 3.7168ZM12.8252 3.68164C12.8537 3.73131 12.8825 3.78573 12.9111 3.84473L12.8252 3.68164C12.7967 3.63205 12.7684 3.58635 12.7402 3.54688L12.8252 3.68164ZM10.7354 2.43457C10.7853 2.44217 10.8351 2.45099 10.8848 2.46094C10.7815 2.44025 10.6776 2.42457 10.5732 2.41406L10.7354 2.43457ZM20.0391 2.43457C20.089 2.44217 20.1388 2.45099 20.1885 2.46094C20.0852 2.44026 19.9813 2.42457 19.877 2.41406L20.0391 2.43457Z" fill="url(#paint0_linear_2018_8340)"/>
<defs>
<linearGradient id="paint0_linear_2018_8340" x1="14.9004" y1="0" x2="14.9004" y2="35.2441" gradientUnits="userSpaceOnUse">
<stop stop-color="#C30044"/>
<stop offset="1" stop-color="white"/>
</linearGradient>
</defs>
</svg>
