<svg width="64" height="64" viewBox="0 0 64 64" fill="none" xmlns="http://www.w3.org/2000/svg">
<g clip-path="url(#clip0_836_128)">
<path d="M63.2677 59.7315L50.0933 46.5568C50.0731 46.5359 50.0528 46.5156 50.032 46.4956L17.534 13.9976C17.512 13.9747 17.4898 13.9524 17.467 13.9306L4.2697 0.733261C3.29333 -0.243118 1.71057 -0.243118 0.734315 0.733261C-0.241938 1.70964 -0.242063 3.2924 0.734315 4.26865L11.9079 15.4422C6.21246 19.9263 2.68157 24.9336 1.64569 26.5085C-0.548565 29.8445 -0.548565 34.1558 1.64569 37.4918C2.9847 39.5274 6.76009 44.7536 12.8835 49.3048C19.0834 53.913 25.5339 56.2495 32.0558 56.2495C37.4315 56.2495 42.7716 54.65 47.9565 51.491L59.7326 63.267C60.2207 63.7551 60.8604 63.9993 61.5002 63.9993C62.1399 63.9993 62.7798 63.7551 63.2678 63.267C64.2441 62.2905 64.2441 60.7077 63.2677 59.7315ZM23.9345 27.4687L27.3744 30.9086C27.0129 32.4895 27.4478 34.2156 28.6792 35.447C29.9106 36.6784 31.6366 37.1132 33.2176 36.7518L36.5337 40.0679C35.1653 40.8394 33.6149 41.2498 32.0012 41.2498C26.9008 41.2498 22.7515 37.1004 22.7515 32.0001C22.7514 30.3925 23.1629 28.8394 23.9345 27.4687ZM32.0557 51.2493C19.9178 51.2493 9.8551 40.8744 5.82271 34.7439C4.72621 33.077 4.72621 30.9229 5.82271 29.256C6.77534 27.8077 10.0964 23.1018 15.4706 19.0051L20.3121 23.8466C18.6493 26.2239 17.7515 29.0527 17.7515 32C17.7515 39.8573 24.1438 46.2496 32.0011 46.2496C34.9602 46.2496 37.7816 45.3536 40.1557 43.6901L44.3016 47.8359C40.2498 50.1028 36.1421 51.2493 32.0557 51.2493Z" fill="#909AA8"/>
<path d="M62.4196 26.6056C62.4067 26.5847 62.3936 26.5638 62.3802 26.5431C61.0529 24.5049 57.3075 19.2723 51.2113 14.714C45.0315 10.0934 38.5867 7.75049 32.0556 7.75049C29.5697 7.75049 27.0499 8.10186 24.5662 8.79462C23.2362 9.16574 22.459 10.5446 22.8298 11.8744C23.2008 13.2043 24.5792 13.9814 25.9096 13.6108C27.9559 13.0399 30.0237 12.7505 32.0555 12.7505C44.1419 12.7505 54.1098 23.0477 58.1395 29.1934C58.1523 29.2143 58.1656 29.2352 58.1792 29.2558C58.7162 30.0723 59.0001 31.0211 59.0001 31.9998C59.0001 32.9786 58.7162 33.9273 58.1792 34.7438C56.9767 36.572 55.3653 38.5774 53.6416 40.3906C52.6903 41.3914 52.7303 42.9736 53.7311 43.9249C54.2148 44.3848 54.8345 44.6129 55.4531 44.6129C56.1141 44.6129 56.7741 44.3523 57.2655 43.8353C59.7291 41.2436 61.3939 38.9547 62.3565 37.4912C63.4317 35.8565 64 33.9576 64 31.9996C63.9999 30.0806 63.4539 28.2181 62.4196 26.6056Z" fill="#909AA8"/>
<path d="M45.9193 28.9326C44.7443 23.5814 40.534 19.3331 35.1928 18.1098C33.847 17.8022 32.5061 18.6428 32.1979 19.9886C31.8898 21.3345 32.7309 22.6752 34.0766 22.9835C37.5419 23.777 40.2734 26.533 41.0357 30.0049C41.292 31.1729 42.3266 31.9691 43.4751 31.9691C43.6526 31.9691 43.8329 31.9501 44.0136 31.9104C45.3622 31.6144 46.2153 30.2811 45.9193 28.9326Z" fill="#909AA8"/>
</g>
<defs>
<clipPath id="clip0_836_128">
<rect width="64" height="64" fill="white"/>
</clipPath>
</defs>
</svg>
