<svg width="64" height="64" viewBox="0 0 64 64" fill="none" xmlns="http://www.w3.org/2000/svg">
<path d="M32.0189 56.1181C24.2416 56.1181 17.0995 53.3207 10.7914 47.8041C5.65666 43.3139 2.36614 38.0678 0.861745 35.3403C-0.296456 33.2407 -0.28669 30.7387 0.888113 28.6469C2.4179 25.9233 5.75187 20.6836 10.893 16.1958C17.2191 10.6743 24.327 7.875 32.0189 7.875C39.7137 7.875 46.8192 10.6768 53.1366 16.2021C58.2703 20.6914 61.5936 25.9321 63.1175 28.6562C64.2845 30.7421 64.2947 33.2373 63.1439 35.331C62.449 36.5957 61.285 38.5585 59.6849 40.7285C58.866 41.8398 57.3011 42.0761 56.1898 41.2573C55.0785 40.4379 54.8421 38.873 55.661 37.7617C57.098 35.8129 58.1405 34.0551 58.7625 32.9233C59.077 32.3505 59.0741 31.6679 58.7547 31.0971C55.6893 25.6181 46.9481 12.874 32.0189 12.874C17.0912 12.874 8.32365 25.6162 5.24699 31.0947C4.9257 31.667 4.92277 32.3515 5.23918 32.9253C8.25626 38.3955 16.9062 51.1181 32.0189 51.1181C37.5834 51.1181 42.8089 49.3788 47.5506 45.9482C48.6693 45.1391 50.2318 45.3901 51.0409 46.5082C51.8504 47.6269 51.5995 49.1894 50.4813 49.999C44.869 54.059 38.6571 56.1181 32.0189 56.1181ZM46.7479 31.9965C46.7479 23.8647 40.1322 17.249 32.0004 17.249C23.8685 17.249 17.2533 23.8647 17.2533 31.9965C17.2533 40.1284 23.869 46.7436 32.0004 46.7436C40.1322 46.7436 46.7479 40.1284 46.7479 31.9965ZM41.7489 31.9965C41.7489 37.3715 37.3758 41.7446 32.0004 41.7446C26.6254 41.7446 22.2523 37.3715 22.2523 31.9965C22.2523 26.6216 26.6254 22.2485 32.0004 22.2485C37.3758 22.2485 41.7489 26.6216 41.7489 31.9965ZM34.8041 32.6753C32.8871 32.5468 31.3588 30.9443 31.3143 29.0234C31.3138 29.0078 31.3134 28.9917 31.3134 28.976C31.3016 27.8847 30.0936 27.248 29.1913 27.8618C27.7689 28.8296 26.872 30.5112 27.0165 32.3916C27.204 34.8256 29.1713 36.7934 31.6053 36.9804C33.4857 37.125 35.1674 36.228 36.1351 34.8061C36.7484 33.9043 36.1132 32.6953 35.0223 32.6836C34.9501 32.6831 34.8773 32.6801 34.8041 32.6753Z" fill="#909AA8"/>
</svg>
