<svg width="31" height="35" viewBox="0 0 31 35" fill="none" xmlns="http://www.w3.org/2000/svg">
<path fill-rule="evenodd" clip-rule="evenodd" d="M25.3189 0.0236052C25.7143 -0.0452609 26.1078 0.0394996 26.4299 0.239435L26.4317 0.240818L26.5503 0.322446C26.8166 0.524315 27.0205 0.808934 27.1184 1.14749L28.7551 6.56398L28.7768 6.64284C28.9726 7.43334 28.5367 8.24605 27.7701 8.52074L27.6926 8.54657C26.8517 8.80069 25.9637 8.32496 25.7096 7.48402L25.069 5.34371C20.035 13.025 12.2094 18.5712 3.18118 20.6911V31.8184H28.822C29.7004 31.8184 30.4126 32.531 30.4126 33.4094C30.4125 34.2878 29.7004 34.9999 28.822 35H1.59059C0.712226 34.9999 9.39849e-05 34.2878 0 33.4094V6.70556C0.00012783 5.82723 0.712247 5.11505 1.59059 5.11497C2.46901 5.11497 3.18105 5.82718 3.18118 6.70556V17.415C11.0534 15.3742 17.8712 10.4573 22.3282 3.72176L20.2423 4.06672L20.2414 4.06718C19.4013 4.20304 18.6085 3.65408 18.4322 2.83123L18.417 2.75053C18.2769 1.8834 18.8665 1.06681 19.7337 0.926585L25.3152 0.0240664L25.3189 0.0236052ZM28.9507 34.6629L29.0604 34.6467C29.064 34.646 29.0675 34.6447 29.0711 34.644C29.0315 34.6519 28.9915 34.6587 28.9507 34.6629ZM0.35326 33.6478C0.353912 33.6512 0.354885 33.6546 0.355565 33.658C0.347682 33.6186 0.341241 33.5787 0.337119 33.5381L0.35326 33.6478ZM30.0819 33.4094L30.0764 33.2886C30.0762 33.2867 30.0757 33.2849 30.0755 33.283C30.0796 33.3246 30.0819 33.3668 30.0819 33.4094ZM29.0757 32.1748C29.1146 32.1828 29.1529 32.1924 29.1905 32.2039C29.1134 32.1803 29.0332 32.1639 28.9507 32.1555L29.0757 32.1748ZM4.14826 20.1087C4.00516 20.1469 3.86174 20.1843 3.71799 20.2207L4.14826 20.1087C4.29139 20.0704 4.43469 20.0315 4.57716 19.9915L4.14826 20.1087ZM5.85092 19.6078C5.5699 19.6982 5.28754 19.7854 5.00374 19.8689L5.42848 19.7411C5.71077 19.6542 5.9916 19.5637 6.27105 19.4699L5.85092 19.6078ZM8.74617 18.5356C8.47579 18.6493 8.20389 18.76 7.93036 18.8672L8.33988 18.7039C8.61175 18.5935 8.88196 18.4796 9.15062 18.3627L8.74617 18.5356ZM2.84452 6.57966C2.84864 6.62107 2.85098 6.66307 2.85098 6.70556L2.84545 6.58473C2.84528 6.58303 2.84469 6.58136 2.84452 6.57966ZM11.5238 17.2231C11.1361 17.4272 10.7444 17.6244 10.3488 17.8143L10.7435 17.622C11.1364 17.4274 11.5254 17.2256 11.9103 17.017L11.5238 17.2231ZM14.17 15.6819C14.0474 15.7605 13.9243 15.8385 13.8006 15.9157L14.17 15.6819C14.2927 15.6032 14.4146 15.524 14.5362 15.4439L14.17 15.6819ZM16.3223 14.1872C15.973 14.4492 15.619 14.705 15.2603 14.9541L15.6177 14.7028C15.9734 14.4493 16.3244 14.1892 16.6705 13.9229L16.3223 14.1872ZM27.5967 8.2302L27.7106 8.18962C27.7119 8.18908 27.713 8.18786 27.7143 8.18731C27.6761 8.20306 27.637 8.21802 27.5967 8.2302ZM26.4382 0.658642C26.5112 0.724973 26.5754 0.800604 26.6314 0.882773C26.5538 0.768933 26.4595 0.668335 26.3506 0.585777L26.4382 0.658642Z" fill="url(#paint0_linear_4026_6154)"/>
<path fill-rule="evenodd" clip-rule="evenodd" d="M10.6679 22.201C11.5463 22.2011 12.2584 22.9137 12.2585 23.7921V29.1315C12.2584 30.0099 11.5463 30.7221 10.6679 30.7221C9.78947 30.7221 9.07742 30.0099 9.0773 29.1315V25.3776H7.45304V29.1315C7.45292 30.0099 6.7408 30.7221 5.86245 30.7221C4.98403 30.7221 4.27198 30.0099 4.27186 29.1315V23.7921C4.27191 22.9136 4.98399 22.201 5.86245 22.201H10.6679ZM7.09655 29.3852C7.08857 29.4242 7.07853 29.4624 7.06704 29.5C7.09059 29.4229 7.10753 29.3428 7.11592 29.2602L7.09655 29.3852ZM4.62466 29.37C4.62531 29.3734 4.62628 29.3767 4.62696 29.3801C4.61908 29.3408 4.61264 29.3008 4.60852 29.2602L4.62466 29.37ZM9.43056 29.37C9.43079 29.3712 9.43124 29.3724 9.43148 29.3737C9.42421 29.3364 9.41831 29.2986 9.41441 29.2602L9.43056 29.37ZM11.9278 23.7921L11.9223 23.6712C11.9221 23.6694 11.9215 23.6676 11.9214 23.6657C11.9255 23.7072 11.9278 23.7495 11.9278 23.7921ZM5.61572 22.5557C5.57406 22.5639 5.53313 22.5743 5.49305 22.5866C5.57024 22.5629 5.65062 22.5465 5.73332 22.5381L5.61572 22.5557ZM10.9215 22.5575C10.9605 22.5655 10.9988 22.5751 11.0364 22.5866C10.9593 22.563 10.8791 22.5465 10.7966 22.5381L10.9215 22.5575Z" fill="url(#paint1_linear_4026_6154)"/>
<path fill-rule="evenodd" clip-rule="evenodd" d="M19.7447 17.9296C20.6231 17.9296 21.3352 18.6418 21.3353 19.5202V29.1315C21.3352 30.0099 20.6231 30.7221 19.7447 30.7221C18.8663 30.7221 18.1542 30.0099 18.1541 29.1315V21.1242L16.5299 21.114V29.1315C16.5298 30.0099 15.8177 30.7221 14.9393 30.7221C14.0609 30.7221 13.3488 30.0099 13.3487 29.1315V19.5202C13.3488 18.6418 14.0609 17.9296 14.9393 17.9296H19.7447ZM13.702 29.37C13.7022 29.3712 13.7026 29.3724 13.7029 29.3737C13.6956 29.3364 13.6897 29.2986 13.6858 29.2602L13.702 29.37ZM18.5074 29.37C18.5076 29.3712 18.5081 29.3724 18.5083 29.3737C18.501 29.3364 18.4951 29.2986 18.4912 29.2602L18.5074 29.37ZM13.6854 19.3943L13.6858 19.3915C13.686 19.3892 13.6869 19.387 13.6872 19.3846C13.6868 19.3879 13.6857 19.3911 13.6854 19.3943ZM20.9797 19.2712C20.9959 19.3517 21.0051 19.4349 21.0051 19.5202L20.9996 19.3994C20.9954 19.3559 20.9882 19.3132 20.9797 19.2712Z" fill="url(#paint2_linear_4026_6154)"/>
<path fill-rule="evenodd" clip-rule="evenodd" d="M28.822 9.92041C29.7003 9.92049 30.4125 10.6327 30.4126 11.511V29.1315C30.4125 30.0099 29.7004 30.7221 28.822 30.7221C27.9436 30.7221 27.2315 30.0099 27.2314 29.1315V13.1021H25.6072V29.1315C25.6071 30.0099 24.8949 30.722 24.0166 30.7221C23.1382 30.7221 22.4256 30.0099 22.4255 29.1315V11.511C22.4257 10.6326 23.1382 9.92041 24.0166 9.92041H28.822ZM25.2507 29.3852C25.2427 29.4242 25.2327 29.4624 25.2212 29.5C25.2447 29.4229 25.2617 29.3428 25.2701 29.2602L25.2507 29.3852ZM30.0561 29.3852C30.0481 29.4242 30.0381 29.4624 30.0266 29.5C30.0502 29.4229 30.0671 29.3428 30.0755 29.2602L30.0561 29.3852ZM22.7788 29.37C22.7794 29.3734 22.7804 29.3767 22.7811 29.3801C22.7732 29.3408 22.7668 29.3008 22.7626 29.2602L22.7788 29.37ZM27.5842 29.37C27.5849 29.3734 27.5858 29.3767 27.5865 29.3801C27.5786 29.3408 27.5722 29.3008 27.5681 29.2602L27.5842 29.37ZM23.7699 10.2751C23.7282 10.2833 23.6873 10.2937 23.6472 10.306C23.7244 10.2823 23.8047 10.2659 23.8875 10.2575L23.7699 10.2751ZM29.0757 10.2769C29.1146 10.2849 29.1529 10.2945 29.1905 10.306C29.1134 10.2824 29.0332 10.2659 28.9507 10.2575L29.0757 10.2769ZM22.7626 11.3823C22.7636 11.3734 22.7652 11.3645 22.7663 11.3556C22.7652 11.365 22.7631 11.3743 22.7622 11.3837L22.7626 11.3823ZM30.0819 11.511L30.0764 11.3902C30.0762 11.3882 30.0757 11.3862 30.0755 11.3842C30.0797 11.4259 30.0819 11.4682 30.0819 11.511Z" fill="url(#paint3_linear_4026_6154)"/>
<defs>
<linearGradient id="paint0_linear_4026_6154" x1="15.2063" y1="1.52588e-05" x2="15.2063" y2="35" gradientUnits="userSpaceOnUse">
<stop stop-color="#C30044"/>
<stop offset="1" stop-color="white"/>
</linearGradient>
<linearGradient id="paint1_linear_4026_6154" x1="15.2063" y1="1.52588e-05" x2="15.2063" y2="35" gradientUnits="userSpaceOnUse">
<stop stop-color="#C30044"/>
<stop offset="1" stop-color="white"/>
</linearGradient>
<linearGradient id="paint2_linear_4026_6154" x1="15.2063" y1="1.52588e-05" x2="15.2063" y2="35" gradientUnits="userSpaceOnUse">
<stop stop-color="#C30044"/>
<stop offset="1" stop-color="white"/>
</linearGradient>
<linearGradient id="paint3_linear_4026_6154" x1="15.2063" y1="1.52588e-05" x2="15.2063" y2="35" gradientUnits="userSpaceOnUse">
<stop stop-color="#C30044"/>
<stop offset="1" stop-color="white"/>
</linearGradient>
</defs>
</svg>
