<svg width="30" height="35" viewBox="0 0 30 35" fill="none" xmlns="http://www.w3.org/2000/svg">
<path d="M10.203 0.457354C8.81308 0.457354 7.42317 0.997547 6.37703 2.0779C4.33534 4.18953 4.28772 7.5644 6.23268 9.73584H4.02433C2.06599 9.73584 0.457337 11.3519 0.457337 13.3117V30.9698C0.457337 32.9296 2.06599 34.5427 4.02433 34.5427H25.5898C27.5481 34.5427 29.1553 32.9281 29.1553 30.9698V13.3117C29.1553 11.3519 27.5481 9.73584 25.5898 9.73584H23.3814C25.3264 7.56471 25.2773 4.18953 23.2371 2.0779C22.1909 0.996062 20.8011 0.457354 19.4112 0.457354C18.0213 0.457354 16.6314 0.997547 15.5852 2.0779C15.2653 2.40826 15.0123 2.78476 14.8084 3.19546C14.6046 2.78476 14.3501 2.40826 14.0316 2.0779C12.9855 0.996062 11.5956 0.457354 10.2057 0.457354H10.203ZM10.203 2.43355C11.0601 2.43355 11.9173 2.77731 12.5854 3.46929C13.0229 3.92168 13.5497 5.82051 13.703 7.51846C13.8086 8.68513 13.7804 9.15093 13.7759 9.70746C13.2342 9.71193 12.7982 9.74169 11.691 9.63454C10.0556 9.47681 8.25651 8.95298 7.82055 8.5006C6.48275 7.11666 6.48275 4.85177 7.82055 3.4678C8.49019 2.77584 9.34585 2.43207 10.203 2.43207L10.203 2.43355ZM19.4099 2.43355C20.267 2.43355 21.1242 2.77731 21.7923 3.46929C23.1301 4.85323 23.1301 7.11812 21.7923 8.50208C21.3548 8.95447 19.5557 9.47828 17.9218 9.63603C16.8132 9.74318 16.3757 9.71341 15.834 9.70895C15.8295 9.15242 15.8028 8.68662 15.9084 7.51995C16.0617 5.82204 16.59 3.92321 17.026 3.47078C17.6956 2.77882 18.5513 2.43504 19.4084 2.43504L19.4099 2.43355ZM4.02426 11.7445H13.3428C13.5065 11.7489 13.6583 11.7504 13.8011 11.7519V32.5375H4.02429C3.14334 32.5375 2.46326 31.8545 2.46326 30.9691V13.3111C2.46326 12.4257 3.14334 11.7426 4.02429 11.7426L4.02426 11.7445ZM16.27 11.7445H25.5901C26.4711 11.7445 27.1511 12.4275 27.1511 13.3129V30.9709C27.1511 31.8563 26.4711 32.5394 25.5901 32.5394H15.8057V11.7538C15.95 11.7523 16.1048 11.7508 16.27 11.7463L16.27 11.7445Z" fill="url(#paint0_linear_4026_6150)"/>
<path d="M0 30.9696V13.3116C5.76478e-05 11.1006 1.81197 9.27845 4.02428 9.27842L4.02433 9.73584L3.84191 9.74063C1.96712 9.83723 0.457393 11.4132 0.457337 13.3117V30.9698L0.462215 31.1524C0.555319 32.9683 2.02756 34.4449 3.84191 34.5382L4.02433 34.5427H25.5898C27.4868 34.5426 29.0547 33.0274 29.1508 31.1524L29.1553 30.9698V13.3117C29.1552 11.4132 27.647 9.8373 25.7724 9.74063L25.5898 9.73584L25.59 9.27842C27.8025 9.27853 29.6126 11.1009 29.6126 13.3116V30.9696C29.6126 33.1793 27.8021 34.9999 25.59 35H4.02428C1.81243 35 0 33.1812 0 30.9696ZM26.6935 30.9708V13.3129C26.6935 12.6781 26.2163 12.202 25.59 12.202H16.3432L16.2823 12.2036C16.2759 12.2038 16.2696 12.2035 16.2632 12.2036V32.0817H25.59L25.5901 32.5394H15.8057V11.7538C15.95 11.7523 16.1048 11.7508 16.27 11.7463L16.27 11.7445H25.5901L25.672 11.7463C26.5128 11.7871 27.1511 12.4552 27.1511 13.3129V30.9709L27.1492 31.0533C27.1098 31.8711 26.4858 32.4979 25.672 32.5374L25.5901 32.5394L25.59 32.0817C26.2163 32.0817 26.6935 31.6056 26.6935 30.9708ZM2.46326 30.9691V13.3111C2.46326 12.4257 3.14334 11.7426 4.02429 11.7426L4.02426 11.7445H13.3428C13.5065 11.7489 13.6583 11.7504 13.8011 11.7519V32.5375H4.02429L4.02428 32.0801H13.3437V12.2016L3.98285 12.202C3.37709 12.2225 2.92073 12.6906 2.92073 13.3112V30.9692C2.92081 31.6039 3.39805 32.0801 4.02428 32.0801L4.02429 32.5375L3.94223 32.5354C3.12852 32.4958 2.50474 31.8691 2.46542 31.0513L2.46326 30.9691ZM19.411 0C20.9192 0 22.4298 0.58489 23.5661 1.75991L23.668 1.86795C25.555 3.9193 25.7667 6.99705 24.3024 9.27842H25.59L25.5898 9.73584H23.3814C25.296 7.59865 25.2783 4.29477 23.3313 2.17785L23.2371 2.0779C22.2236 1.02985 20.8876 0.49157 19.5414 0.458966L19.4112 0.457354C18.0213 0.457354 16.6314 0.997547 15.5852 2.0779L15.4684 2.20385C15.2028 2.50283 14.9868 2.83612 14.8084 3.19546C14.6046 2.78476 14.3501 2.40826 14.0316 2.0779C13.0182 1.02989 11.6822 0.491607 10.3361 0.458966L10.2057 0.457354L10.2057 0C11.6667 0 13.1297 0.548931 14.2527 1.65146L14.3603 1.75991L14.4907 1.90085C14.6048 2.02968 14.7099 2.16425 14.8079 2.30295C14.9421 2.11288 15.0908 1.93084 15.2568 1.7595L15.364 1.65146C16.4867 0.550462 17.9497 3.90565e-05 19.411 0ZM10.203 0.457354C8.81308 0.457354 7.42317 0.997547 6.37703 2.0779L6.28296 2.17785C4.3345 4.29473 4.31818 7.59832 6.23268 9.73584H4.02433L4.02428 9.27842H5.31182C3.82136 6.95657 4.06581 3.8102 6.04819 1.75991L6.15583 1.65146C7.27859 0.550465 8.74156 2.80968e-05 10.2029 0L10.203 0.457354ZM19.4099 2.43355C20.267 2.43355 21.1242 2.77731 21.7923 3.46929C23.1301 4.85323 23.1301 7.11812 21.7923 8.50208L21.7473 8.54448C21.2425 8.98663 19.5046 9.48318 17.9218 9.63603L17.5361 9.66996C16.7022 9.736 16.308 9.71286 15.834 9.70895C15.8301 9.22202 15.809 8.80452 15.8745 7.9263L15.9084 7.51995C16.0617 5.82204 16.59 3.92321 17.026 3.47078C17.6956 2.77882 18.5513 2.43504 19.4084 2.43504L19.4099 2.43355ZM10.203 2.43355C11.0601 2.43355 11.9173 2.77731 12.5854 3.46929C13.0229 3.92168 13.5497 5.82051 13.703 7.51846C13.8086 8.68513 13.7804 9.15093 13.7759 9.70746C13.302 9.71137 12.9089 9.73474 12.0765 9.66874L11.691 9.63454C10.1068 9.48174 8.36885 8.98541 7.86537 8.54326L7.82055 8.5006C6.48275 7.11666 6.48275 4.85177 7.82055 3.4678C8.49019 2.77584 9.34585 2.43207 10.203 2.43207L10.203 2.43355ZM19.4086 2.8927C18.6766 2.8927 17.9389 3.18533 17.3546 3.78911C17.3069 3.83917 17.2189 3.97662 17.1105 4.23345C17.0072 4.47816 16.9016 4.79117 16.8022 5.15016C16.6284 5.77846 16.48 6.52483 16.396 7.25125L16.364 7.56116C16.2888 8.39111 16.2823 8.85235 16.286 9.2573C16.6701 9.26147 17.1018 9.25552 17.8777 9.18053L18.175 9.14804C18.8711 9.06279 19.5811 8.9146 20.1774 8.74025C20.5182 8.64061 20.8141 8.53475 21.045 8.43075C21.288 8.32127 21.4165 8.23259 21.4634 8.18421L21.5694 8.06886C22.5946 6.89351 22.5946 5.07773 21.5694 3.90243L21.4634 3.78708C20.8991 3.20267 20.1881 2.91042 19.4784 2.8927H19.4086ZM10.1419 2.89108C9.43022 2.90692 8.71729 3.19863 8.14928 3.78545C7.01933 4.9544 6.98433 6.85277 8.04368 8.06724L8.14969 8.18259L8.20046 8.22645C8.26733 8.27676 8.38484 8.34732 8.56723 8.42954C8.79788 8.53351 9.09361 8.63939 9.43439 8.73903C10.1158 8.93829 10.9462 9.10324 11.7349 9.17932L12.1102 9.21222C12.6584 9.25579 13.0072 9.25911 13.3238 9.25567C13.3273 8.92007 13.3243 8.54634 13.2804 7.95635L13.2475 7.55953C13.1734 6.73885 13.0081 5.86655 12.8096 5.14854C12.7104 4.78965 12.6051 4.47681 12.5017 4.23223C12.3926 3.974 12.304 3.8367 12.2564 3.78748C11.674 3.18425 10.9351 2.89108 10.2029 2.89108H10.1419ZM10.2057 0L10.2057 0.457354H10.203L10.2029 0H10.2057Z" fill="url(#paint1_linear_4026_6150)"/>
<defs>
<linearGradient id="paint0_linear_4026_6150" x1="14.8063" y1="0" x2="14.8063" y2="35" gradientUnits="userSpaceOnUse">
<stop stop-color="#C30044"/>
<stop offset="1" stop-color="white"/>
</linearGradient>
<linearGradient id="paint1_linear_4026_6150" x1="14.8063" y1="0.457341" x2="14.8063" y2="34.5427" gradientUnits="userSpaceOnUse">
<stop stop-color="#C30044"/>
<stop offset="1" stop-color="white"/>
</linearGradient>
</defs>
</svg>
