<svg width="36" height="35" viewBox="0 0 36 35" fill="none" xmlns="http://www.w3.org/2000/svg">
<path fill-rule="evenodd" clip-rule="evenodd" d="M17.9998 0C19.5926 3.23278e-06 21.05 0.913991 21.7552 2.35952L25.0492 9.09904L32.4138 10.18L32.561 10.2048C34.0712 10.4832 35.3176 11.5757 35.795 13.061C36.2724 14.5447 35.9008 16.1695 34.8398 17.2912L34.7349 17.3982L29.406 22.6415L30.6642 30.0494L30.6869 30.1983C30.8935 31.7374 30.2473 33.272 28.9977 34.1887C27.7479 35.1053 26.1031 35.2504 24.719 34.5783L24.5859 34.5103L17.9998 31.0133L11.4132 34.5093L11.4137 34.5098C10.812 34.8312 10.1415 35 9.45964 35H9.45465C8.22591 34.9882 7.06122 34.4348 6.26924 33.4844C5.47724 32.5338 5.1357 31.2802 5.33447 30.0536L5.33538 30.049L6.5931 22.6424L1.26471 17.3964C0.123876 16.2726 -0.287666 14.5905 0.205025 13.0591C0.697617 11.5281 2.00915 10.4113 3.58574 10.18L10.9504 9.09858L14.2439 2.35814C14.9492 0.913384 16.4058 7.17996e-05 17.9998 0ZM9.26024 34.428L9.45964 34.4354C9.37779 34.4346 9.29634 34.4302 9.21527 34.4239C9.23027 34.4251 9.24521 34.4271 9.26024 34.428ZM26.0875 32.029C26.1022 32.0342 26.1172 32.0382 26.132 32.0428C26.1137 32.0371 26.0953 32.0314 26.0771 32.0249L26.0875 32.029ZM27.5206 31.6564C27.4587 31.7258 27.3891 31.7894 27.3125 31.8457L27.2344 31.899C27.2232 31.9061 27.2113 31.912 27.1999 31.9187C27.2382 31.8962 27.2761 31.8724 27.3125 31.8457C27.4146 31.7706 27.5041 31.6827 27.5796 31.5852L27.5206 31.6564ZM17.9934 3.45153C17.7005 3.44828 17.4349 3.61624 17.3107 3.87924L17.3089 3.88292L17.3071 3.88613L13.6166 11.4402L13.6162 11.4411C13.3668 11.949 12.8869 12.3028 12.3298 12.3847L4.08129 13.5943C3.79195 13.6403 3.55238 13.8473 3.46083 14.1296C3.37176 14.41 3.44413 14.716 3.64888 14.9252L9.62043 20.8043L9.62089 20.8052L9.69356 20.8815C10.0438 21.2726 10.1999 21.8058 10.1119 22.3309L10.1114 22.3323L8.70156 30.6324C8.65716 30.924 8.77832 31.2164 9.01315 31.3891C9.24976 31.5621 9.56226 31.5872 9.82256 31.4547L17.3257 27.4708H17.3439C17.8103 27.274 18.3414 27.295 18.7933 27.5355L26.1752 31.4547C26.4192 31.5788 26.7094 31.5647 26.9396 31.4198L26.985 31.3886C27.2218 31.2137 27.3413 30.9226 27.2971 30.6324L25.8872 22.3304L25.8868 22.3309C25.799 21.8071 25.9528 21.2729 26.3055 20.8806L26.3787 20.8038L32.2199 15.0534L32.3457 14.928C32.5536 14.7206 32.6281 14.4111 32.5374 14.1277C32.4473 13.8484 32.2083 13.6413 31.9187 13.5948L23.6693 12.3847C23.1482 12.308 22.6927 11.9942 22.432 11.5344L22.3825 11.4402L18.6915 3.88613L18.6897 3.88292L18.6884 3.87924C18.5642 3.61618 18.2983 3.44819 18.0052 3.45153L18.0016 3.14878L17.9934 3.45153ZM27.8412 31.0027C27.8242 31.0936 27.7979 31.1822 27.7631 31.2673L27.7954 31.1814C27.8147 31.1233 27.8299 31.0632 27.8412 31.0027ZM27.859 30.6306C27.8674 30.725 27.8662 30.819 27.8553 30.9113L27.863 30.8189C27.8661 30.7567 27.8646 30.6935 27.859 30.6306ZM26.4373 22.2363L27.8471 30.5364L26.4373 22.2349V22.2363ZM17.7209 27.9366C17.6554 27.9532 17.5908 27.9756 17.5283 28.0041L17.4647 28.0354C17.5467 27.9917 17.6331 27.9589 17.7209 27.9366ZM9.32565 21.3142C9.36928 21.3694 9.40784 21.4279 9.44057 21.4893L9.40559 21.4286C9.3692 21.3692 9.32736 21.3127 9.28023 21.26L9.32565 21.3142ZM2.95711 14.8641C3.02357 15.0359 3.12539 15.195 3.25962 15.33L3.19557 15.2606C3.07222 15.1179 2.98183 14.953 2.92713 14.7773L2.95711 14.8641ZM33.1328 14.4158C33.1271 14.5918 33.0871 14.7648 33.0156 14.9252C33.0996 14.7367 33.1402 14.5306 33.1328 14.323V14.4158ZM2.86581 14.4153C2.86681 14.4462 2.8691 14.477 2.87217 14.5076L2.86581 14.4153C2.86482 14.3846 2.86518 14.3538 2.86627 14.323L2.86581 14.4153ZM32.9552 13.6968C33.0013 13.7774 33.0393 13.8635 33.0683 13.9541C33.0974 14.0449 33.1169 14.1374 33.1265 14.2302L33.1138 14.1374C33.1031 14.0758 33.0877 14.0146 33.0683 13.9541C33.0295 13.8332 32.9749 13.7203 32.9066 13.6178L32.9552 13.6968ZM35.3349 13.4859C35.3461 13.5315 35.3563 13.5771 35.3658 13.6228C35.3561 13.5757 35.3455 13.5287 35.334 13.4818L35.3349 13.4859ZM3.20511 13.4717C3.18485 13.4946 3.16569 13.5186 3.14697 13.5429L3.20511 13.4717C3.2254 13.4487 3.2465 13.427 3.26825 13.4055L3.20511 13.4717ZM32.7944 13.4721C32.8147 13.4951 32.8343 13.5186 32.853 13.5429L32.7944 13.4721C32.7742 13.4493 32.753 13.4269 32.7313 13.4055L32.7944 13.4721ZM0.735547 13.2337L0.703298 13.3407C0.713617 13.305 0.724106 13.2693 0.735547 13.2337ZM23.2387 11.6166C23.3874 11.7256 23.5618 11.7985 23.7492 11.8261L32.0018 13.0366C32.1577 13.0611 32.3054 13.1127 32.4393 13.1868L32.3575 13.145C32.2463 13.0931 32.1265 13.0562 32.0018 13.0366L23.7492 11.8261C23.5383 11.7951 23.344 11.7065 23.1842 11.5739L23.2387 11.6166ZM3.81421 13.0784C3.75499 13.0966 3.69758 13.1191 3.64206 13.145L3.727 13.1087C3.78444 13.0866 3.84378 13.0686 3.9046 13.0545L3.81421 13.0784ZM34.9524 12.5294C34.9735 12.5662 34.9939 12.6035 35.0137 12.6411L34.9524 12.5294C34.9313 12.4927 34.9093 12.456 34.887 12.4201L34.9524 12.5294ZM34.2452 11.6478C34.2761 11.676 34.3066 11.7045 34.3365 11.7337L34.2452 11.6478C34.2144 11.6197 34.183 11.5917 34.1512 11.5647L34.2452 11.6478ZM23.0829 11.4792C23.0988 11.496 23.1152 11.5122 23.1319 11.5279L23.0829 11.4792C23.067 11.4624 23.0515 11.4447 23.0366 11.4269L23.0829 11.4792ZM13.0461 11.3134C13.0341 11.3318 13.0213 11.3495 13.0084 11.3671C13.0352 11.3307 13.0603 11.2929 13.0829 11.2532L13.0461 11.3134ZM33.7492 11.2674C33.7843 11.2898 33.819 11.3128 33.8532 11.3364L33.7488 11.267C33.7136 11.2446 33.6779 11.223 33.642 11.2017L33.7492 11.2674ZM22.8826 11.1903C22.9036 11.2332 22.9273 11.2744 22.953 11.3138L22.9162 11.2532C22.9046 11.2326 22.893 11.2117 22.8826 11.1903ZM33.4217 11.0818C33.4591 11.1006 33.4963 11.1197 33.533 11.1397L33.4217 11.0818C33.3842 11.0631 33.3463 11.0446 33.3082 11.0272L33.4217 11.0818ZM3.5385 10.7593C3.37139 10.79 3.20804 10.8322 3.04932 10.8852C3.24819 10.8189 3.45444 10.7697 3.66614 10.7387L3.5385 10.7593ZM17.3739 3.0399C17.347 3.05425 17.3207 3.06965 17.2948 3.08584C17.3466 3.05336 17.4006 3.0244 17.4565 2.99948L17.3739 3.0399ZM17.6296 2.93654C17.6 2.94497 17.5708 2.95454 17.5419 2.96502L17.6296 2.93654C17.6592 2.92809 17.6892 2.92082 17.7195 2.91448L17.6296 2.93654ZM14.9329 2.26993C14.9148 2.29891 14.8976 2.32856 14.8802 2.35814C14.9194 2.29141 14.9603 2.22606 15.0033 2.16243L14.9329 2.26993ZM15.2332 1.85739C15.2059 1.88976 15.1794 1.92275 15.1532 1.95616L15.2332 1.85739C15.2604 1.82502 15.2885 1.79314 15.3167 1.76183L15.2332 1.85739ZM15.4916 1.58036C15.4614 1.6095 15.4318 1.63926 15.4026 1.66949L15.4916 1.58036C15.5218 1.55124 15.5527 1.52247 15.5838 1.49445L15.4916 1.58036ZM16.9937 0.707948C16.9535 0.719666 16.9135 0.73207 16.8738 0.74516L16.9937 0.707948C17.0339 0.696244 17.0748 0.685185 17.1154 0.67487L16.9937 0.707948Z" fill="url(#paint0_linear_4026_6152)"/>
<defs>
<linearGradient id="paint0_linear_4026_6152" x1="18" y1="0" x2="18" y2="35" gradientUnits="userSpaceOnUse">
<stop stop-color="#C30044"/>
<stop offset="1" stop-color="white"/>
</linearGradient>
</defs>
</svg>
